# xmcd
#
# Track frame offsets: 
#        150
#        15795
#        31800
#        44757
#        59705
#        89089
#        105157
#        123066
#        138303
#        154300
#        169062
#        184635
#        201385
#        222557
#        237425
#        252414
#        259921
#        273968
#        289982
#        301260
#        316953
#
# Disc length: 4562 seconds
#
# Revision: 2
# Processed by: cddbd v1.5.2PL0 Copyright (c) Steve Scherf et al.
# Submitted via: ExactAudioCopyFreeDBPlugin 1.0
#
DISCID=3511d015
DTITLE=Truck Stop - 40 Jahre... geile Zeiten [CD 1)
DYEAR=2013
DGENRE=Country
TTITLE0=Hello Josephine
TTITLE1=Von Arizona bis Old Texas Town
TTITLE2=Ich möcht' so gern Dave Dudley hör'n
TTITLE3=Wilde Pferde, wilde Wölfe, wildes Land
TTITLE4=Love-Medley
TTITLE5=So ist Sommer
TTITLE6=Some Broken Hearts
TTITLE7=Studio in Maschen
TTITLE8=Die Lady und der Tramp
TTITLE9=Arizona, Arizona
TTITLE10=Dein Mann
TTITLE11=East Bound And Down
TTITLE12=Blue Grass Medley
TTITLE13=300 Jahre
TTITLE14=Ich bin Cowboy
TTITLE15=Wandrin' Star
TTITLE16=Was soll'n wir denn in Nashville
TTITLE17=Tanz mit mir
TTITLE18=Take It Easy, ales Haus
TTITLE19=Der wilde, wilde Westen
TTITLE20=Orange Blossom Special
EXTD=
EXTT0=
EXTT1=
EXTT2=
EXTT3=
EXTT4=
EXTT5=
EXTT6=
EXTT7=
EXTT8=
EXTT9=
EXTT10=
EXTT11=
EXTT12=
EXTT13=
EXTT14=
EXTT15=
EXTT16=
EXTT17=
EXTT18=
EXTT19=
EXTT20=
PLAYORDER=
